<svg height="512" viewBox="0 0 54 56" width="512" xmlns="http://www.w3.org/2000/svg"><g id="Page-1" fill="none" fill-rule="evenodd"><g id="016---Bag" fill="rgb(0,0,0)" fill-rule="nonzero"><path id="Shape" d="m8.1 55.005c9.837.984 17.821.995 17.9.995h2c.079 0 8.07-.012 17.9-.995 2.861-.286 4.939-1.366 6.176-3.21 1.987-2.963 1.371-7.148.966-8.51-3.042-10.215-5.086-32.392-5.824-41.454-.0798638-1.03927591-.9506932-1.83932045-1.993-1.831h-2.243l-.005.154c-.415 15.01-8.577 21.846-15.977 21.846s-15.551-6.828-15.976-21.815v-.029-.155h-2.249c-1.04230678-.00832045-1.91313625.79172409-1.993 1.831-.738 9.061-2.782 31.238-5.824 41.453-.405 1.362-1.021 5.547.966 8.51 1.237 1.844 3.315 2.924 6.176 3.21zm37.4-3.98c2.436-.244 3.051-1.158 3.252-1.459.96-1.431.765-4.1.454-5.139-.1446791-.5245224.1565654-1.0684615.6779376-1.2241112.5213722-.1556498 1.0715105.1341186 1.2380624.6521112.389 1.3.727 4.685-.709 6.826-.332.494-1.341 2-4.714 2.334-.0332058.0036348-.0665973.0053044-.1.005-.5522847.0276142-1.0223858-.3977153-1.05-.95s.3977153-1.0223858.95-1.05zm-42.624-7.17c.16655189-.5179926.71669022-.807761 1.23806243-.6521112.52137222.1556497.82261667.6995888.67793757 1.2241112-.311 1.044-.506 3.708.453 5.139.2.3.817 1.215 3.253 1.459.55228472.0276143.97761417.4977153.94999994 1.05-.02761424.5522847-.49771521.9776142-1.04999994.95-.03340272.0003044-.06679424-.0013652-.1-.005-3.373-.337-4.382-1.84-4.714-2.333-1.435-2.147-1.097-5.529-.708-6.832z"/><path id="Shape" d="m27 20c4.538 0 9.394-3.08 12.024-9.633-3.1271972 3.2924092-7.4834146 5.1350341-12.024 5.086-4.539866.0489107-8.8954829-1.7928888-12.023-5.084 2.63 6.551 7.485 9.631 12.023 9.631z"/></g></g></svg>