<?xml version="1.0" encoding="utf-8"?>
<!-- Generator: Adobe Illustrator 18.1.0, SVG Export Plug-In . SVG Version: 6.00 Build 0)  -->
<svg version="1.1" id="Layer_1" xmlns="http://www.w3.org/2000/svg" xmlns:xlink="http://www.w3.org/1999/xlink" x="0px" y="0px"
	 width="149.9px" height="19.8px" viewBox="0 0 149.9 19.8" enable-background="new 0 0 149.9 19.8" xml:space="preserve">
<g>
	<g>
		<defs>
			<path id="SVGID_1_" d="M2.4,2.7H0.1V0.1h7.5v2.6H5.2v9.5H2.4V2.7z M8.5,0.1h2.9v4.7h2.5V0.1h2.9v12.2h-2.9V7.4h-2.5v4.8H8.5V0.1z
				 M18.1,0.1h6.8v2.6H21v2.2h3.5v2.5H21v2.3h4v2.6h-6.9V0.1z M29.2,0.1h3.7c1.4,0,2.6,0.4,3.3,1.1c0.7,0.7,1,1.6,1,2.9v0.1
				c0,1.8-0.7,2.8-1.8,3.4l2.1,4.6h-3.2l-1.6-3.9H32v3.9h-2.9V0.1z M32.8,6c1,0,1.5-0.6,1.5-1.7V4.2c0-1.1-0.6-1.7-1.6-1.7H32V6
				H32.8z M38.3,0.1h6.8v2.6h-3.9v2.2h3.5v2.5h-3.5v2.3h4v2.6h-6.9V0.1z M46.3,0.1h6.7v2.6h-3.8V5h3.4v2.6h-3.4v4.7h-2.9V0.1z
				 M53.9,8V0.1h2.9v8.1c0,1.1,0.5,1.7,1.3,1.7c0.8,0,1.3-0.5,1.3-1.7V0.1h2.9V8c0,3.1-1.7,4.5-4.2,4.5C55.6,12.4,53.9,11.1,53.9,8z
				 M63.2,6.4V5.9c0-3.8,2.2-6,5.1-6c1.3,0,2.3,0.4,3.3,1.2l-1.5,2.3c-0.4-0.4-0.9-0.8-1.8-0.8c-1.3,0-2.3,1.2-2.3,3.4v0.3
				c0,2.5,1,3.5,2.2,3.5c0.3,0,0.6-0.1,0.8-0.2V7.5h-1.4V5.1h4.1v6.2c-1,0.6-2.1,1.1-3.5,1.1C65.4,12.4,63.2,10.3,63.2,6.4z M73,0.1
				h6.8v2.6h-3.9v2.2h3.5v2.5h-3.5v2.3h4v2.6H73V0.1z M81,0.1h6.8v2.6h-3.9v2.2h3.5v2.5h-3.5v2.3h4v2.6H81V0.1z M92.1,0.1h3.4
				c2.6,0,4.4,1.4,4.4,4.2v0.1c0,2.9-2,4.2-4.3,4.3h-0.6v3.6h-2.9V0.1z M95.4,6.2c1,0,1.6-0.7,1.6-1.8V4.3c0-1.2-0.6-1.8-1.6-1.8
				h-0.5v3.7H95.4z M100.7,0.1h3.7c1.4,0,2.6,0.4,3.3,1.1c0.7,0.7,1,1.6,1,2.9v0.1c0,1.8-0.7,2.8-1.8,3.4l2.1,4.6h-3.2l-1.6-3.9
				h-0.7v3.9h-2.9V0.1z M104.3,6c1,0,1.5-0.6,1.5-1.7V4.2c0-1.1-0.6-1.7-1.6-1.7h-0.7V6H104.3z M109.6,6.4V5.9
				c0-3.8,1.9-6.1,4.6-6.1c2.7,0,4.6,2.2,4.6,6v0.5c0,3.8-1.9,6.1-4.6,6.1C111.4,12.5,109.6,10.2,109.6,6.4z M115.9,6.3V6
				c0-2.5-0.7-3.5-1.7-3.5c-1,0-1.7,1-1.7,3.5v0.4c0,2.5,0.7,3.5,1.7,3.5C115.2,9.8,115.9,8.8,115.9,6.3z M118.8,11.3l1.3-2.2
				c0.3,0.3,0.7,0.6,1.2,0.6c0.6,0,1-0.4,1-1.3V0.1h2.9v8.5c0,1.3-0.3,2.2-1,2.9c-0.6,0.6-1.5,0.9-2.5,0.9
				C120.4,12.4,119.4,11.9,118.8,11.3z M126.4,0.1h6.8v2.6h-3.9v2.2h3.5v2.5h-3.5v2.3h4v2.6h-6.9V0.1z M134,6.4V5.9
				c0-4,2.1-6.1,4.8-6.1c1.3,0,2.3,0.5,3.1,1.2l-1.5,2.3c-0.4-0.4-0.9-0.8-1.5-0.8c-1.1,0-2,1.1-2,3.5v0.1c0,2.5,1,3.5,2,3.5
				c0.7,0,1.2-0.4,1.6-0.9l1.4,2.2c-0.8,0.8-1.9,1.4-3.3,1.4C135.9,12.4,134,10.3,134,6.4z M144.6,2.7h-2.3V0.1h7.5v2.6h-2.3v9.5
				h-2.9V2.7z"/>
		</defs>
		<linearGradient id="SVGID_2_" gradientUnits="userSpaceOnUse" x1="6.783152e-02" y1="6.1375" x2="149.7728" y2="6.1375">
			<stop  offset="0.131" style="stop-color:#FF5633"/>
			<stop  offset="0.9152" style="stop-color:#0FCFE5"/>
		</linearGradient>
		<use xlink:href="#SVGID_1_"  overflow="visible" fill="url(#SVGID_2_)"/>
		<clipPath id="SVGID_3_">
			<use xlink:href="#SVGID_1_"  overflow="visible"/>
		</clipPath>
		<linearGradient id="SVGID_4_" gradientUnits="userSpaceOnUse" x1="-4.6911" y1="8.3729" x2="154.9889" y2="8.3729">
			<stop  offset="0.131" style="stop-color:#FF5633"/>
			<stop  offset="0.9152" style="stop-color:#0FCFE5"/>
		</linearGradient>
		<rect x="-4.7" y="-7" clip-path="url(#SVGID_3_)" fill="url(#SVGID_4_)" width="159.7" height="30.8"/>
	</g>
	<linearGradient id="SVGID_5_" gradientUnits="userSpaceOnUse" x1="-6.783148e-02" y1="18.5229" x2="149.9322" y2="18.5229">
		<stop  offset="0.131" style="stop-color:#FF5633"/>
		<stop  offset="0.9152" style="stop-color:#0FCFE5"/>
	</linearGradient>
	<rect x="-0.1" y="17.4" fill="url(#SVGID_5_)" width="150" height="2.2"/>
</g>
</svg>
